HIERARCHY
ROOT hip
{
  OFFSET 0 0 0
  CHANNELS 6 Xposition Yposition Zposition Zrotation Yrotation Xrotation
  JOINT abdomen
  {
    OFFSET 0 20.6881 -0.73152
    CHANNELS 3 Zrotation Xrotation Yrotation
    JOINT chest
    {
      OFFSET 0 11.7043 -0.48768
      CHANNELS 3 Zrotation Xrotation Yrotation
      JOINT neck
      {
        OFFSET 0 22.1894 -2.19456
        CHANNELS 3 Zrotation Xrotation Yrotation
        JOINT head
        {
          OFFSET -0.24384 7.07133 1.2192
          CHANNELS 3 Zrotation Xrotation Yrotation
          JOINT leftEye
          {
            OFFSET 4.14528 8.04674 8.04672
            CHANNELS 3 Zrotation Xrotation Yrotation
            End Site
            {
              OFFSET 1 0 0
            }
          }
          JOINT rightEye
          {
            OFFSET -3.6576 8.04674 8.04672
            CHANNELS 3 Zrotation Xrotation Yrotation
            End Site
            {
              OFFSET 1 0 0
            }
          }
        }
      }
      JOINT rCollar
      {
        OFFSET -2.68224 19.2634 -4.8768
        CHANNELS 3 Zrotation Xrotation Yrotation
        JOINT rShldr
        {
          OFFSET -8.77824 -1.95073 1.46304
          CHANNELS 3 Zrotation Xrotation Yrotation
          JOINT rForeArm
          {
            OFFSET -28.1742 -1.7115 0.48768
            CHANNELS 3 Zrotation Xrotation Yrotation
            JOINT rHand
            {
              OFFSET -22.5879 0.773209 7.07136
              CHANNELS 3 Zrotation Xrotation Yrotation
              JOINT rThumb1
              {
                OFFSET -1.2192 -0.487915 3.41376
                CHANNELS 3 Zrotation Xrotation Yrotation
                JOINT rThumb2
                {
                  OFFSET -3.37035 -0.52449 3.41376
                  CHANNELS 3 Zrotation Xrotation Yrotation
                  End Site
                  {
                    OFFSET -1.78271 -1.18214 1.43049
                  }
                }
              }
              JOINT rIndex1
              {
                OFFSET -7.75947 0.938293 5.60832
                CHANNELS 3 Zrotation Xrotation Yrotation
                JOINT rIndex2
                {
                  OFFSET -2.54057 -0.884171 1.56538
                  CHANNELS 3 Zrotation Xrotation Yrotation
                  End Site
                  {
                    OFFSET -1.62519 -0.234802 1.16502
                  }
                }
              }
              JOINT rMid1
              {
                OFFSET -8.24714 1.18213 3.41376
                CHANNELS 3 Zrotation Xrotation Yrotation
                JOINT rMid2
                {
                  OFFSET -3.10165 -0.590103 1.0647
                  CHANNELS 3 Zrotation Xrotation Yrotation
                  End Site
                  {
                    OFFSET -2.48547 -0.328903 0.83742
                  }
                }
              }
              JOINT rRing1
              {
                OFFSET -8.82822 0.546677 1.51678
                CHANNELS 3 Zrotation Xrotation Yrotation
                JOINT rRing2
                {
                  OFFSET -2.60934 -0.819778 -0.0198488
                  CHANNELS 3 Zrotation Xrotation Yrotation
                  End Site
                  {
                    OFFSET -2.33842 -0.294052 0.168128
                  }
                }
              }
              JOINT rPinky1
              {
                OFFSET -8.27202 -0.0477905 -0.4584
                CHANNELS 3 Zrotation Xrotation Yrotation
                JOINT rPinky2
                {
                  OFFSET -1.82734 -0.647385 -0.700984
                  CHANNELS 3 Zrotation Xrotation Yrotation
                  End Site
                  {
                    OFFSET -1.69225 -0.51767 -0.607171
                  }
                }
              }
            }
          }
        }
      }
      JOINT lCollar
      {
        OFFSET 2.68224 19.2634 -4.8768
        CHANNELS 3 Zrotation Xrotation Yrotation
        JOINT lShldr
        {
          OFFSET 8.77824 -1.95073 1.46304
          CHANNELS 3 Zrotation Xrotation Yrotation
          JOINT lForeArm
          {
            OFFSET 28.1742 -1.7115 0.48768
            CHANNELS 3 Zrotation Xrotation Yrotation
            JOINT lHand
            {
              OFFSET 22.5879 0.773209 7.07136
              CHANNELS 3 Zrotation Xrotation Yrotation
              JOINT lThumb1
              {
                OFFSET 1.2192 -0.487915 3.41376
                CHANNELS 3 Zrotation Xrotation Yrotation
                JOINT lThumb2
                {
                  OFFSET 3.37035 -0.52449 3.41376
                  CHANNELS 3 Zrotation Xrotation Yrotation
                  End Site
                  {
                    OFFSET 1.78271 -1.18214 1.43049
                  }
                }
              }
              JOINT lIndex1
              {
                OFFSET 7.75947 0.938293 5.60832
                CHANNELS 3 Zrotation Xrotation Yrotation
                JOINT lIndex2
                {
                  OFFSET 2.54057 -0.884171 1.56538
                  CHANNELS 3 Zrotation Xrotation Yrotation
                  End Site
                  {
                    OFFSET 1.62519 -0.234802 1.16502
                  }
                }
              }
              JOINT lMid1
              {
                OFFSET 8.24714 1.18213 3.41376
                CHANNELS 3 Zrotation Xrotation Yrotation
                JOINT lMid2
                {
                  OFFSET 3.10165 -0.590103 1.0647
                  CHANNELS 3 Zrotation Xrotation Yrotation
                  End Site
                  {
                    OFFSET 2.48547 -0.328903 0.83742
                  }
                }
              }
              JOINT lRing1
              {
                OFFSET 8.82822 0.546677 1.51678
                CHANNELS 3 Zrotation Xrotation Yrotation
                JOINT lRing2
                {
                  OFFSET 2.60934 -0.819778 -0.0198488
                  CHANNELS 3 Zrotation Xrotation Yrotation
                  End Site
                  {
                    OFFSET 2.33842 -0.294052 0.168128
                  }
                }
              }
              JOINT lPinky1
              {
                OFFSET 8.27202 -0.0477905 -0.4584
                CHANNELS 3 Zrotation Xrotation Yrotation
                JOINT lPinky2
                {
                  OFFSET 1.82734 -0.647385 -0.700984
                  CHANNELS 3 Zrotation Xrotation Yrotation
                  End Site
                  {
                    OFFSET 1.69225 -0.51767 -0.607171
                  }
                }
              }
            }
          }
        }
      }
    }
  }
  JOINT rButtock
  {
    OFFSET -8.77824 4.35084 1.2192
    CHANNELS 3 Zrotation Xrotation Yrotation
    JOINT rThigh
    {
      OFFSET 0 -1.70687 -2.19456
      CHANNELS 3 Zrotation Xrotation Yrotation
      JOINT rShin
      {
        OFFSET 0 -36.8199 0.73152
        CHANNELS 3 Zrotation Xrotation Yrotation
        JOINT rFoot
        {
          OFFSET 0.73152 -45.1104 -5.12064
          CHANNELS 3 Zrotation Xrotation Yrotation
          End Site
          {
            OFFSET -1.1221 -3.69964 12.103
          }
        }
      }
    }
  }
  JOINT lButtock
  {
    OFFSET 8.77824 4.35084 1.2192
    CHANNELS 3 Zrotation Xrotation Yrotation
    JOINT lThigh
    {
      OFFSET 0 -1.70687 -2.19456
      CHANNELS 3 Zrotation Xrotation Yrotation
      JOINT lShin
      {
        OFFSET 0 -36.8199 0.73152
        CHANNELS 3 Zrotation Xrotation Yrotation
        JOINT lFoot
        {
          OFFSET -0.73152 -45.1104 -5.12064
          CHANNELS 3 Zrotation Xrotation Yrotation
          End Site
          {
            OFFSET 1.1221 -3.69964 12.103
          }
        }
      }
    }
  }
}
MOTION
Frames:	5
Frame Time:	0.00833333
0.0 0.0 0.0 0.0 0.0 0.0 0.0 0.0 0.0 0.0 0.0 0.0 0.0 0.0 0.0 0.0 0.0 0.0 0.0 0.0 0.0 0.0 0.0 0.0 0.0 0.0 0.0 0.0 0.0 0.0 0.0 0.0 0.0 0.0 0.0 0.0 0.0 0.0 0.0 0.0 0.0 0.0 0.0 0.0 0.0 0.0 0.0 0.0 0.0 0.0 0.0 0.0 0.0 0.0 0.0 0.0 0.0 0.0 0.0 0.0 0.0 0.0 0.0 0.0 0.0 0.0 0.0 0.0 0.0 0.0 0.0 0.0 0.0 0.0 0.0 0.0 0.0 0.0 0.0 0.0 0.0 0.0 0.0 0.0 0.0 0.0 0.0 0.0 0.0 0.0 0.0 0.0 0.0 0.0 0.0 0.0 0.0 0.0 0.0 0.0 0.0 0.0 0.0 0.0 0.0 0.0 0.0 0.0 0.0 0.0 0.0 0.0 0.0 0.0 0.0 0.0 0.0 0.0 0.0 0.0 0.0 0.0 0.0 0.0 0.0 0.0 0.0 0.0 0.0 0.0 0.0 0.0
5.9666 55.2236 -212.13099999999997 -10.755281 -22.597731 7.912025 0.846006 1.695646 0.010202 -0.054175 -1.701035 2.50497 -8.827705 13.226081 -83.057151 15.170492 8.230147 83.501664 0.000154 -0.0 -0.00367 -0.000424 -0.0 0.001687 0.071092 -0.427823 -0.09459 -146.336459 83.026076 166.743827 73.328399 54.469558 -122.45742 176.161948 5.257121 146.342778 -0.442272 0.435016 0.069164 -137.013065 -39.673023 118.421457 0.531678 -0.867353 -0.297216 148.203981 -56.271528 85.189756 -0.220207 0.638389 0.122438 -11.391262 33.419036 9.075627 0.004435 1.770507 0.555822 7.09642 27.813262 4.278513 54.23693 87.258231 -14.517375 -162.03673 55.561593 -148.236831 81.707934 68.336698 -84.818745 -30.110053 -40.317651 -22.633104 -135.78097 -1.3441 -157.738919 161.016378 51.973542 -135.444718 -0.567306 -0.561724 0.08372 104.475268 9.651027 -95.297263 39.690933 37.279402 -30.59123 -88.734356 -62.59144 -40.671371 171.805752 -40.92192 -145.170218 168.255438 -19.484335 -143.920791 0.015526 -1.323172 0.415723 -10.422977 0.2164 0.040961 -0.100615 0.258056 -0.090737 145.868179 6.953507 142.515296 -179.986509 75.749996 -0.009231 166.442954 73.745256 180.0 8.990817 -20.403009 77.345878 25.848732 86.406072 67.351953 0.000612 -0.000354 -0.000787 5.593488 -24.915572 -11.303058 -7.278451 28.021562 58.866393 -112.793893 7.236475 20.379616
5.970000000000001 55.2221 -212.13099999999997 -10.73456 -22.59975 7.906095 5.730582 1.824079 -72.401476 1.193371 -2.172667 77.682962 -9.604951 15.95694 -83.369869 18.975189 9.931193 83.983906 -0.001707 -0.0 0.00284 0.004009 0.0 0.003092 -6.042936 25.599087 7.234498 36.389078 21.90804 9.160821 102.57919 12.98596 146.97547 -174.667435 37.063036 146.362497 -121.364614 30.329777 71.958118 24.375893 -38.28121 26.852438 25.69587 -44.69258 -5.23321 -4.231102 26.437949 5.87697 -36.035735 51.723317 29.83197 -175.900385 -41.21624 142.951631 -77.742404 72.905014 95.869691 -15.797117 -74.00871 -32.093999 0.549743 1.455986 0.507823 3.626317 3.349718 1.004071 153.049963 10.023161 -158.66731 22.217248 -3.165306 -13.087258 19.102422 -26.808554 101.201804 -158.28578 -45.017624 -136.06164 89.136036 38.426508 -50.299152 -26.809051 -30.124939 -22.073011 10.570542 15.013943 -6.864028 -23.277243 -19.348696 1.130671 8.415944 20.88065 -5.644599 -29.446996 -60.208016 -6.414623 145.119883 0.310022 179.225882 157.346483 45.328153 -175.555481 145.173388 12.067983 141.822214 162.413626 55.864277 146.669416 -0.000104 0.00027 0.000134 -5.10108 2.517842 -78.13317 -25.540679 0.549112 31.056983 107.56528 7.126437 -4.371744 0.00284 -0.00068 0.00142 21.176109 -44.214205 -180.0 35.811765 -43.537688 145.707837 15.480282 -61.437641 102.266034
5.9670000000000005 55.2216 -212.13500000000002 -10.761299 -22.587457 7.926613 5.678212 5.075515 -0.267551 1.275745 -4.972082 8.107783 -3.207146 26.747937 -150.224757 9.138393 28.74082 150.24716 -0.003118 -0.0 0.001916 0.002608 0.0 0.002073 -152.282109 13.461126 157.740175 92.586491 -55.465733 116.382208 165.154648 82.581179 73.352706 159.952358 -30.599073 141.408019 -166.630337 -4.305366 89.771116 -9.399699 -45.899244 8.330978 -90.225635 41.073065 75.796839 -101.231051 50.105358 75.998283 13.807746 -42.122475 -2.981832 5.034691 -5.885601 -0.648299 0.002428 0.917996 0.286978 -61.524228 -86.809459 -83.002556 -140.783131 -0.521073 -137.840834 56.34127 82.243308 -18.87885 159.221309 -48.028572 -170.414609 -82.611025 62.370217 100.725687 6.654814 27.190573 -86.085781 5.509078 12.936232 0.377816 153.678538 8.238547 -87.337737 16.933861 -34.820473 -14.771843 90.225289 41.072617 -75.796881 171.821859 -22.831088 -114.382404 89.836152 60.702867 -81.262607 153.173466 21.39227 -138.108412 69.296889 72.946454 -87.017107 151.957447 62.451092 -162.629506 -44.720014 86.378935 5.355638 162.006985 55.559052 148.269979 179.995741 75.750327 0.00218 133.879275 78.095252 45.32694 11.655529 37.856181 89.150586 130.522786 62.10168 137.801385 -179.976079 75.750554 -0.016367 -152.833992 11.364591 -83.407663 -67.030307 7.626763 92.654506 -145.409003 -25.555309 1.251438
5.9731 55.2197 -212.13799999999998 -10.733314 -22.592352 7.935598 7.139069 6.174051 -0.0 1.831958 -6.009557 9.607159 4.42261 10.046976 38.27007 -8.294057 -10.29429 -38.114386 -0.003751 0.0 -0.001418 -0.003319 -0.0 0.002817 -40.727252 63.137152 43.345295 -115.698441 -3.013863 129.214359 -6.02893 -31.431777 -140.570933 148.322283 -45.837429 132.952405 -170.694397 -8.376615 89.948665 177.070687 -18.910111 94.748586 168.920875 -66.16971 109.489176 -13.00613 39.311724 8.240611 23.903283 -61.333935 1.398095 2.989849 0.161055 0.111043 -0.000286 0.063892 0.019731 -155.534713 -2.863522 172.196149 11.403861 38.078643 9.694291 -153.031377 29.123427 -146.920119 155.716772 -4.925309 -162.135681 -119.767335 72.161503 166.839756 7.575972 63.548588 -102.253895 7.303751 17.293238 0.082766 -51.059897 -41.203675 -12.85724 140.327645 -3.042372 -116.772146 162.917811 -37.929328 -122.630759 -2.555041 19.966006 5.056608 151.476191 17.842195 -137.540358 1.468521 13.015875 -2.62765 145.119561 0.267895 179.212216 156.350766 12.494381 -179.292267 -3.653963 10.39547 -3.322526 -14.393227 41.832137 -8.453793 -0.00024 -0.001451 0.000309 -9.235508 5.834366 -122.012366 -50.846394 -22.655806 -73.13829 155.117427 -19.121905 -156.000351 -0.0 0.00023 0.000944 69.464196 -57.061915 130.260442 84.265526 30.747785 -175.44268 87.379058 -67.083393 175.104897
